<svg width="166" height="184" viewBox="0 0 166 184" fill="none" xmlns="http://www.w3.org/2000/svg">
<path fill-rule="evenodd" clip-rule="evenodd" d="M71.126 3.27676L32.5 25.8405L11.6521 38.3492C4.42317 42.6866 0 50.4987 0 58.929V122.555C0 130.821 4.25343 138.505 11.258 142.894L70.258 179.858C78.0511 184.74 87.9489 184.74 95.742 179.858L154.742 142.894C161.747 138.505 166 130.821 166 122.555V58.4821C166 50.2946 161.826 42.6719 154.928 38.2616L135.5 25.8405L94.9885 3.07686C87.5625 -1.09585 78.4811 -1.01977 71.126 3.27676ZM88.776 73.2385H105.534V67.1905C105.534 56.1025 100.326 50.5585 89.91 50.5585H75.924C65.508 50.5585 60.3 56.1025 60.3 67.1905V83.4445C60.3 94.5325 65.508 100.076 75.924 100.076H87.264C87.936 100.076 88.482 100.328 88.902 100.832C89.406 101.336 89.658 101.924 89.658 102.596V118.598C89.658 119.27 89.406 119.858 88.902 120.362C88.482 120.866 87.936 121.118 87.264 121.118H79.452C78.78 121.118 78.192 120.866 77.688 120.362C77.268 119.858 77.058 119.27 77.058 118.598V109.526H60.3V117.968C60.3 129.056 65.508 134.6 75.924 134.6H90.792C101.208 134.6 106.416 129.056 106.416 117.968V100.454C106.416 89.5345 101.208 83.9905 90.792 83.8225H79.452C78.78 83.8225 78.192 83.5705 77.688 83.0665C77.268 82.5625 77.058 81.9745 77.058 81.3025V66.8125C77.058 66.1405 77.268 65.5525 77.688 65.0485C78.192 64.5445 78.78 64.2925 79.452 64.2925H86.382C87.054 64.2925 87.6 64.5445 88.02 65.0485C88.524 65.5525 88.776 66.1405 88.776 66.8125V73.2385Z" fill="black"/>
</svg>
