<svg width="166" height="185" viewBox="0 0 166 185" fill="none" xmlns="http://www.w3.org/2000/svg">
<path fill-rule="evenodd" clip-rule="evenodd" d="M71.126 3.93642L32.5 26.5001L11.6521 39.0089C4.42317 43.3462 0 51.1584 0 59.5887V123.215C0 131.481 4.25343 139.165 11.258 143.553L70.258 180.517C78.0511 185.4 87.9489 185.4 95.742 180.517L154.742 143.553C161.747 139.165 166 131.481 166 123.215V59.1418C166 50.9542 161.826 43.3316 154.928 38.9212L135.5 26.5001L94.9885 3.73653C87.5625 -0.436184 78.4811 -0.360106 71.126 3.93642ZM88.776 73.8981H105.534V67.8501C105.534 56.7621 100.326 51.2181 89.91 51.2181H75.924C65.508 51.2181 60.3 56.7621 60.3 67.8501V84.1041C60.3 95.1921 65.508 100.736 75.924 100.736H87.264C87.936 100.736 88.482 100.988 88.902 101.492C89.406 101.996 89.658 102.584 89.658 103.256V119.258C89.658 119.93 89.406 120.518 88.902 121.022C88.482 121.526 87.936 121.778 87.264 121.778H79.452C78.78 121.778 78.192 121.526 77.688 121.022C77.268 120.518 77.058 119.93 77.058 119.258V110.186H60.3V118.628C60.3 129.716 65.508 135.26 75.924 135.26H90.792C101.208 135.26 106.416 129.716 106.416 118.628V101.114C106.416 90.1941 101.208 84.6501 90.792 84.4821H79.452C78.78 84.4821 78.192 84.2301 77.688 83.7261C77.268 83.2221 77.058 82.6341 77.058 81.9621V67.4721C77.058 66.8001 77.268 66.2121 77.688 65.7081C78.192 65.2041 78.78 64.9521 79.452 64.9521H86.382C87.054 64.9521 87.6 65.2041 88.02 65.7081C88.524 66.2121 88.776 66.8001 88.776 67.4721V73.8981Z" fill="white"/>
</svg>
